<svg xmlns="http://www.w3.org/2000/svg" viewBox="0 0 32 32" fill="none">
  <circle cx="16" cy="16" r="4" fill="#F59E42"/>
  <path d="M16 2c1.5 0 2.5 2.5 2.5 4s-1 4-2.5 4-2.5-2.5-2.5-4 1-4 2.5-4z" fill="#FDBA74"/>
  <path d="M16 30c-1.5 0-2.5-2.5-2.5-4s1-4 2.5-4 2.5 2.5 2.5 4-1 4-2.5 4z" fill="#FDBA74"/>
  <path d="M2 16c0-1.5 2.5-2.5 4-2.5s4 1 4 2.5-2.5 2.5-4 2.5-4-1-4-2.5z" fill="#FDBA74"/>
  <path d="M30 16c0 1.5-2.5 2.5-4 2.5s-4-1-4-2.5 2.5-2.5 4-2.5 4 1 4 2.5z" fill="#FDBA74"/>
  <path d="M7.1 7.1c1.1-1.1 4 .2 5.1 1.3s2.4 4 1.3 5.1-4-.2-5.1-1.3-2.4-4-1.3-5.1z" fill="#FDE68A"/>
  <path d="M24.9 24.9c-1.1 1.1-4-.2-5.1-1.3s-2.4-4-1.3-5.1 4 .2 5.1 1.3 2.4 4 1.3 5.1z" fill="#FDE68A"/>
  <path d="M24.9 7.1c1.1 1.1-.2 4-1.3 5.1s-4 2.4-5.1 1.3.2-4 1.3-5.1 4-2.4 5.1-1.3z" fill="#FDE68A"/>
  <path d="M7.1 24.9c-1.1-1.1.2-4 1.3-5.1s4-2.4 5.1-1.3-.2 4-1.3 5.1-4 2.4-5.1 1.3z" fill="#FDE68A"/>
</svg>
